<svg xmlns="http://www.w3.org/2000/svg" viewBox="0 0 219.05 50.28"><defs><style>.cls-1{fill:#231f20;}</style></defs><title>CAMP_Logo_Black_Tagline</title><g id="Layer_1" data-name="Layer 1"><path class="cls-1" d="M63.56,78.14A35.49,35.49,0,0,1,53.32,77a17.15,17.15,0,0,1-8.05-4.52q-3.12-3.2-1.65-9.11H56.84q-.86,3.44.43,5.37a6.8,6.8,0,0,0,3.83,2.71A17.17,17.17,0,0,0,67,72a38.21,38.21,0,0,0,6.61-.91l-1.88,6A34.36,34.36,0,0,1,63.56,78.14Zm17.36-30.4L79.14,53.5a18,18,0,0,0-5-.79,22.84,22.84,0,0,0-6.25.64,18.73,18.73,0,0,0-6,2.63,11.59,11.59,0,0,0-4.27,5.2l-6.65,0H44.31a17.46,17.46,0,0,1,7.33-8.83A35.64,35.64,0,0,1,62.43,48a44.44,44.44,0,0,1,10.88-1.14A31.9,31.9,0,0,1,80.91,47.73Z" transform="translate(-34.48 -46.86)"/><path class="cls-1" d="M96.73,78.13l-12.89,0,22.1-27.89,2.55,13.06Zm31.25,0H114.36L108.48,47l13.42-.17Z" transform="translate(-34.48 -46.86)"/><path class="cls-1" d="M154.32,78.16H141L154.1,49.85l7,13.67Zm19.05-23.68,8.51-7.6h12.26l-4.52,31.22H176.72L178.94,61l-9.59,7.71-2.55,0-1.88-3.22-9.48-18.55,13.56,0Z" transform="translate(-34.48 -46.86)"/><path class="cls-1" d="M209.55,78.16H202.9q3.11-9.76,5-15.62t5-15.65H226L221.1,62.52q-1.85,5.85-4.89,15.61Zm34.52-20.68q-2,6.41-7.24,8.46t-14.92,2.22q2.22-7,2.27-7A9.61,9.61,0,0,0,228.82,60a5.09,5.09,0,0,0,2.66-2.79,2.4,2.4,0,0,0-.91-2.76,6.07,6.07,0,0,0-3.94-1.15s.64-2.13,2-6.38q9.21.06,13.46,1.77T244.08,57.48Zm-19.85,3.63h0Zm2.38-7.85h0Z" transform="translate(-34.48 -46.86)"/><path class="cls-1" d="M37.3,96.48V88.9H34.48v-1h6.8v1H38.45v7.58Z" transform="translate(-34.48 -46.86)"/><path class="cls-1" d="M42.49,96.48V87.88h6.19v1h-5v2.63h4.72v1H43.63v2.92h5.25v1Z" transform="translate(-34.48 -46.86)"/><path class="cls-1" d="M56.59,93.46l1.14.29a3.82,3.82,0,0,1-1.29,2.14,3.55,3.55,0,0,1-2.27.73,4.08,4.08,0,0,1-2.26-.57,3.53,3.53,0,0,1-1.33-1.64,5.83,5.83,0,0,1-.46-2.3,5.05,5.05,0,0,1,.51-2.34,3.51,3.51,0,0,1,1.46-1.52,4.29,4.29,0,0,1,2.09-.52,3.53,3.53,0,0,1,2.17.66,3.41,3.41,0,0,1,1.23,1.85l-1.12.26a2.66,2.66,0,0,0-.87-1.37,2.31,2.31,0,0,0-1.43-.43,2.78,2.78,0,0,0-1.66.48,2.5,2.5,0,0,0-.94,1.28,5.12,5.12,0,0,0-.27,1.65A5.25,5.25,0,0,0,51.62,94a2.38,2.38,0,0,0,1,1.22,2.79,2.79,0,0,0,1.46.4,2.45,2.45,0,0,0,1.62-.55A2.83,2.83,0,0,0,56.59,93.46Z" transform="translate(-34.48 -46.86)"/><path class="cls-1" d="M59.16,96.48V87.88H60.3v3.53h4.45V87.88H65.9v8.59H64.76v-4H60.3v4Z" transform="translate(-34.48 -46.86)"/><path class="cls-1" d="M67.78,96.48V87.88H69l4.52,6.75V87.88h1.09v8.59H73.39l-4.52-6.75v6.75Z" transform="translate(-34.48 -46.86)"/><path class="cls-1" d="M76.65,96.48V87.88h1.14v8.59Z" transform="translate(-34.48 -46.86)"/><path class="cls-1" d="M85.92,93.46l1.14.29a3.82,3.82,0,0,1-1.29,2.14,3.55,3.55,0,0,1-2.27.73,4.08,4.08,0,0,1-2.26-.57,3.53,3.53,0,0,1-1.33-1.64,5.83,5.83,0,0,1-.46-2.3A5.05,5.05,0,0,1,80,89.77a3.51,3.51,0,0,1,1.46-1.52,4.29,4.29,0,0,1,2.09-.52,3.53,3.53,0,0,1,2.17.66,3.41,3.41,0,0,1,1.23,1.85l-1.12.26a2.66,2.66,0,0,0-.87-1.37,2.31,2.31,0,0,0-1.43-.43,2.78,2.78,0,0,0-1.66.48,2.5,2.5,0,0,0-.94,1.28,5.12,5.12,0,0,0-.27,1.65A5.25,5.25,0,0,0,80.95,94a2.38,2.38,0,0,0,1,1.22,2.79,2.79,0,0,0,1.46.4A2.45,2.45,0,0,0,85,95.1,2.83,2.83,0,0,0,85.92,93.46Z" transform="translate(-34.48 -46.86)"/><path class="cls-1" d="M87.51,96.48l3.29-8.59H92l3.51,8.59H94.26l-1-2.61H89.66l-.94,2.61ZM90,92.95h2.94L92,90.57q-.4-1.09-.62-1.8a11.74,11.74,0,0,1-.48,1.65Z" transform="translate(-34.48 -46.86)"/><path class="cls-1" d="M96.41,96.48V87.88h1.14v7.58h4.23v1Z" transform="translate(-34.48 -46.86)"/><path class="cls-1" d="M105.07,96.48l3.29-8.59h1.25l3.51,8.59h-1.29l-1-2.61h-3.62l-.94,2.61Zm2.47-3.53h2.94l-.9-2.38q-.4-1.09-.62-1.8a11.74,11.74,0,0,1-.48,1.65Z" transform="translate(-34.48 -46.86)"/><path class="cls-1" d="M114,96.48V87.88h3a7.19,7.19,0,0,1,1.53.12,2.92,2.92,0,0,1,1.26.62,3.51,3.51,0,0,1,1,1.47,5.77,5.77,0,0,1,.34,2,6,6,0,0,1-.23,1.74,4.2,4.2,0,0,1-.59,1.25,3.11,3.11,0,0,1-.78.78,3.19,3.19,0,0,1-1,.43,5.86,5.86,0,0,1-1.38.15Zm1.14-1H117a4.46,4.46,0,0,0,1.33-.16,1.91,1.91,0,0,0,.77-.45,2.71,2.71,0,0,0,.63-1.09,5.32,5.32,0,0,0,.23-1.66,4,4,0,0,0-.44-2.07,2.23,2.23,0,0,0-1.08-1A4.45,4.45,0,0,0,117,88.9h-1.81Z" transform="translate(-34.48 -46.86)"/><path class="cls-1" d="M125.12,96.48l-3.31-8.59H123l2.23,6.24q.27.75.45,1.41.2-.7.46-1.41l2.33-6.24h1.16l-3.37,8.59Z" transform="translate(-34.48 -46.86)"/><path class="cls-1" d="M130.74,96.48V87.88h6.19v1h-5v2.63h4.72v1h-4.72v2.92h5.25v1Z" transform="translate(-34.48 -46.86)"/><path class="cls-1" d="M138.69,96.48V87.88h1.17l4.52,6.75V87.88h1.09v8.59H144.3l-4.52-6.75v6.75Z" transform="translate(-34.48 -46.86)"/><path class="cls-1" d="M149.55,96.48V88.9h-2.83v-1h6.8v1h-2.83v7.58Z" transform="translate(-34.48 -46.86)"/><path class="cls-1" d="M160.33,87.88h1.14v5a5.86,5.86,0,0,1-.29,2.05,2.51,2.51,0,0,1-1.06,1.24,3.76,3.76,0,0,1-2,.48,4.14,4.14,0,0,1-2-.42A2.37,2.37,0,0,1,155,95a5.69,5.69,0,0,1-.33-2.15v-5h1.14v5a4.81,4.81,0,0,0,.21,1.65,1.58,1.58,0,0,0,.71.82,2.48,2.48,0,0,0,1.24.29A2.38,2.38,0,0,0,159.8,95a3.27,3.27,0,0,0,.53-2.18Z" transform="translate(-34.48 -46.86)"/><path class="cls-1" d="M163.37,96.48V87.88h3.81a5.09,5.09,0,0,1,1.75.23,1.91,1.91,0,0,1,1,.82,2.44,2.44,0,0,1,.36,1.3,2.17,2.17,0,0,1-.59,1.54,3,3,0,0,1-1.83.8,3,3,0,0,1,.69.43,5.83,5.83,0,0,1,.94,1.14l1.49,2.34h-1.42l-1.14-1.79q-.5-.77-.82-1.18a2.58,2.58,0,0,0-.58-.57,1.71,1.71,0,0,0-.52-.23,3.41,3.41,0,0,0-.63,0h-1.32v3.81Zm1.14-4.8H167a3.69,3.69,0,0,0,1.22-.16,1.29,1.29,0,0,0,.67-.52,1.39,1.39,0,0,0,.23-.77,1.28,1.28,0,0,0-.44-1,2.07,2.07,0,0,0-1.4-.39h-2.72Z" transform="translate(-34.48 -46.86)"/><path class="cls-1" d="M172.07,96.48V87.88h6.19v1h-5v2.63h4.72v1h-4.72v2.92h5.25v1Z" transform="translate(-34.48 -46.86)"/><path class="cls-1" d="M183.41,96.48V87.88h6.19v1h-5v2.63h4.72v1h-4.72v2.92h5.25v1Z" transform="translate(-34.48 -46.86)"/><path class="cls-1" d="M197.87,95.55a7,7,0,0,0,1.47.79l-.34.79a6.67,6.67,0,0,1-1.84-1.05,4.26,4.26,0,0,1-2.11.53,4.05,4.05,0,0,1-2.11-.56,3.75,3.75,0,0,1-1.46-1.58,5,5,0,0,1-.51-2.3,5.16,5.16,0,0,1,.52-2.32,3.64,3.64,0,0,1,1.46-1.59,4.21,4.21,0,0,1,2.13-.54,4.12,4.12,0,0,1,2.14.57,3.69,3.69,0,0,1,1.45,1.58,5.13,5.13,0,0,1,.5,2.29,5.34,5.34,0,0,1-.32,1.91A4,4,0,0,1,197.87,95.55Zm-2.5-1.45a4.19,4.19,0,0,1,1.62.82,3.54,3.54,0,0,0,1-2.75,4.36,4.36,0,0,0-.35-1.82,2.72,2.72,0,0,0-1-1.21,3,3,0,0,0-3.63.44,4.43,4.43,0,0,0,0,5.17,2.75,2.75,0,0,0,2.11.9,2.9,2.9,0,0,0,1.15-.23,3.68,3.68,0,0,0-1.12-.49Z" transform="translate(-34.48 -46.86)"/><path class="cls-1" d="M206.34,87.88h1.14v5a5.86,5.86,0,0,1-.29,2.05,2.51,2.51,0,0,1-1.06,1.24,3.76,3.76,0,0,1-2,.48,4.14,4.14,0,0,1-2-.42A2.39,2.39,0,0,1,201,95a5.73,5.73,0,0,1-.33-2.15v-5h1.14v5a4.81,4.81,0,0,0,.21,1.65,1.58,1.58,0,0,0,.71.82,2.48,2.48,0,0,0,1.24.29A2.38,2.38,0,0,0,205.8,95a3.27,3.27,0,0,0,.53-2.18Z" transform="translate(-34.48 -46.86)"/><path class="cls-1" d="M209.57,96.48V87.88h1.14v8.59Z" transform="translate(-34.48 -46.86)"/><path class="cls-1" d="M212.7,96.48V87.88h3.24a7.83,7.83,0,0,1,1.31.08,2.6,2.6,0,0,1,1.06.4,2.12,2.12,0,0,1,.69.83,2.79,2.79,0,0,1-.44,3A3.34,3.34,0,0,1,216,93h-2.21v3.5ZM213.84,92h2.22a2.37,2.37,0,0,0,1.56-.41,1.46,1.46,0,0,0,.46-1.15,1.55,1.55,0,0,0-.27-.92,1.27,1.27,0,0,0-.72-.51A4.86,4.86,0,0,0,216,88.9h-2.2Z" transform="translate(-34.48 -46.86)"/><path class="cls-1" d="M220.67,96.48V87.88h1.7l2,6.08q.28.85.41,1.27c.1-.31.25-.77.46-1.38l2.08-6h1.52v8.59h-1.09V89.29l-2.51,7.19h-1l-2.48-7.31v7.31Z" transform="translate(-34.48 -46.86)"/><path class="cls-1" d="M230.74,96.48V87.88h6.19v1h-5v2.63h4.72v1h-4.72v2.92h5.25v1Z" transform="translate(-34.48 -46.86)"/><path class="cls-1" d="M238.7,96.48V87.88h1.17l4.52,6.75V87.88h1.09v8.59h-1.17l-4.52-6.75v6.75Z" transform="translate(-34.48 -46.86)"/><path class="cls-1" d="M249.55,96.48V88.9h-2.83v-1h6.8v1H250.7v7.58Z" transform="translate(-34.48 -46.86)"/></g></svg>